<svg id="Layer_1" data-name="Layer 1" xmlns="http://www.w3.org/2000/svg" viewBox="0 0 133 233.1"><defs><style>.cls-1{fill:#fff;}</style></defs><title>runner</title><g id="ZL2Qc6.tif"><path d="M111.63,317.21c13,0.86,20.07-8.18,26.3-17.11a48.6,48.6,0,0,1,19.21-16.56c4.1-2,5.51-5.53,6.45-9.31,1.86-7.49,3.32-15.08,4.91-22.63a11.44,11.44,0,0,0,.25-3c-0.51-8.82.93-17.18,3.25-25.83,2.05-7.67.61-16.34,0.31-24.56-0.23-6.27-1.32-12.51-1.58-18.78-0.14-3.27-1.27-4.62-4.44-4.33-0.16,0-.33,0-0.5,0-5.41.37-12.94-1.35-15.79,1.54-6.05,6.13-10,14.48-14.13,22.3-2.05,3.9-3.14,8.2-.68,13.15,2.19,4.41-2.39,7.11-5.61,9.19-1.07.69-3.81,0-5.09-1-2.82-2.18-5-5.14-3.23-9,1.25-2.8,3.35-5.24,4.4-8.1,3.84-10.44,7.25-21,11.16-31.46,0.87-2.31,2.67-5.05,4.76-6a164.07,164.07,0,0,1,20.83-7.7c6.73-2,13.31-4.28,20.72-4.07,6.71,0.19,8.72-4.77,6.69-11.62-1.64-5.53-3.14-11.38,1.64-16.39,4.4-4.61,11.1-5.06,18.4-1.32,4.65,2.39,7.51,8.42,6.59,13.87-0.15.89-.66,2.23-0.27,2.63,5.38,5.4-1.45,9.83-1.21,14.81,0,0.36-2.22,1-3.46,1.22a25.63,25.63,0,0,0-4.8,1.09c8,2.37,8.71,8.68,8.82,15.07,0.09,5.16-.43,10.33-0.71,16.16,8.8-6.43,3-15.51,5.77-23.44,0.82,1.11,1.4,2,2.11,2.85s1.56,2.21,2.58,2.5c6.07,1.72,8.43,7.13,4.63,12.38-5.32,7.36-11.79,13.94-16.64,21.57-3.78,6-6,13-8.58,19.63-1.16,3-1.46,6.37-1.89,8.36,11.86,5.09,23.38,9.84,34.71,15,2.7,1.23,4.76,3.88,7.11,5.87v7c-3.29,4-6.3,8.37-9.92,12.09-7.08,7.28-14.64,14.09-21.74,21.35-6.28,6.41-6.76,10.54-2.4,18.44,1.73,3.12,4.21,5.82,6.16,8.84a6.32,6.32,0,0,1,1.16,3.9c-0.09.6-2.08,1.17-3.26,1.32-4.78.58-8.76-1.16-12.09-4.55-3.61-3.67-7.2-7.36-10.86-11-5.14-5.09-5-11,1.4-13.85,5.71-2.53,8.76-6.92,11.59-11.64,4.85-8.1,9.17-16.51,13.85-25-5.66.36-11.71,1.13-17.74,1-4.34-.11-6.46,1.53-8.39,5.23a190.51,190.51,0,0,1-11.85,20c-2.65,3.85-6.38,6.42-11.14,8.45-6.32,2.69-11.62,7.86-17.18,12.2-6.78,5.28-13.5,10.66-20,16.32-1.56,1.36-2,4-3,6-4.68,4.84-8.12,10.23-7.76,17.75,0.12,2.39-.56,4.83-0.88,7.24h-3c-3.7-7-5.83-14.28-5-22.34,0.23-2.16-.64-4.44-1-6.66v-9Z" transform="translate(-111.63 -122.11)"/><path class="cls-1" d="M111.63,326.21c0.37,2.22,1.24,4.5,1,6.66-0.84,8.06,1.29,15.35,5,22.34h-6v-29Z" transform="translate(-111.63 -122.11)"/></g></svg>